Coordinates
version=1
nRows=17
nColumns=24
inDegrees=yes

Units are S.I. units (second, meters, Newtons, ...)
Angles are in degrees.

endheader
time	pelvis_tilt	pelvis_list	pelvis_rotation	pelvis_tx	pelvis_ty	pelvis_tz	hip_flexion_r	hip_adduction_r	hip_rotation_r	knee_angle_r	ankle_angle_r	subtalar_angle_r	mtp_angle_r	hip_flexion_l	hip_adduction_l	hip_rotation_l	knee_angle_l	ankle_angle_l	subtalar_angle_l	mtp_angle_l	lumbar_extension	lumbar_bending	lumbar_rotation
      5.93500000	     13.58190696	     -6.36689434	     16.06838257	      2.26363297	      0.93944053	     -0.21119158	    -11.67459819	     13.17765934	     -4.69945831	     -6.42938489	     19.48679188	     -5.14971974	      0.00000000	      5.45742081	     -8.28294674	     10.26268301	    -65.10472465	     16.77469386	      0.06655961	      0.00000000	    -25.21936131	     10.67328212	    -10.77040814
      5.94000000	     13.51562689	     -6.14564522	     15.73336700	      2.26965312	      0.94000822	     -0.21083680	    -12.27096271	     12.98228296	     -4.57540880	     -6.06552957	     19.54120735	     -4.91923409	      0.00000000	      6.11231163	     -7.80066777	      9.93201832	    -64.44718599	     17.18059333	      0.22900138	      0.00000000	    -25.31075193	     10.27611503	    -10.27788729
      5.94500000	     13.40289128	     -5.94942823	     15.51217647	      2.27559869	      0.94041943	     -0.21060389	    -12.78645998	     12.82025286	     -4.56173566	     -5.71024984	     19.58100944	     -4.73408717	      0.00000000	      6.84486647	     -7.32678894	      9.72912336	    -63.73434027	     17.61022109	      0.50405248	      0.00000000	    -25.32958105	      9.94567189	     -9.94677842
      5.95000000	     13.35770127	     -5.75869177	     15.07110599	      2.28154638	      0.94093665	     -0.21019550	    -13.36963788	     12.61636336	     -4.40475613	     -5.41525021	     19.66564380	     -4.38493271	      0.00000000	      7.41526541	     -6.91442217	      9.27409777	    -62.87925274	     17.98040529	      0.65095957	      0.00000000	    -25.46919777	      9.54955024	     -9.31284866
      5.95500000	     13.26514753	     -5.58951915	     14.82112035	      2.28750006	      0.94126469	     -0.20995672	    -13.88715758	     12.47011676	     -4.38055926	     -5.08805045	     19.73365561	     -4.18060683	      0.00000000	      8.07442599	     -6.50612654	      9.02662863	    -61.97939851	     18.37670116	      0.99816313	      0.00000000	    -25.49945658	      9.24543186	     -8.95067686
      5.96000000	     13.24351570	     -5.42712551	     14.37774865	      2.29338051	      0.94170681	     -0.20956730	    -14.46417152	     12.28426127	     -4.23841882	     -4.82540415	     19.78847929	     -3.82528404	      0.00000000	      8.58197921	     -6.15515952	      8.57212266	    -60.94588738	     18.71391082	      1.20362597	      0.00000000	    -25.66740219	      8.88383049	     -8.31293820
      5.96500000	     13.27013144	     -5.24916771	     14.01758537	      2.29930847	      0.94212016	     -0.20922340	    -15.10113721	     12.11840303	     -4.10773873	     -4.53230785	     19.82876477	     -3.62797168	      0.00000000	      9.01954994	     -5.81507741	      8.19015105	    -59.82491660	     19.06316488	      1.52720734	      0.00000000	    -25.86276498	      8.54559865	     -7.79803573
      5.97000000	     13.23620232	     -5.11966372	     13.66921250	      2.30518782	      0.94239894	     -0.20895360	    -15.63943302	     11.97510279	     -4.03037948	     -4.27883517	     19.88702779	     -3.33431869	      0.00000000	      9.51918940	     -5.50850865	      7.84226679	    -58.63683692	     19.38295441	      1.85237947	      0.00000000	    -25.98125850	      8.25974770	     -7.28800162
      5.97500000	     13.12845901	     -5.04156847	     13.43744394	      2.31107982	      0.94247742	     -0.20877642	    -16.07667035	     11.89846982	     -4.05759991	     -4.02093048	     19.94547485	     -3.06683613	      0.00000000	     10.11964542	     -5.23705470	      7.61989824	    -57.40490124	     19.69282190	      2.27517540	      0.00000000	    -25.97818110	      8.05262975	     -6.92852160
      5.98000000	     13.11221275	     -4.95297314	     12.97716391	      2.31692038	      0.94270454	     -0.20849205	    -16.59845528	     11.74660797	     -3.91201095	     -3.84263745	     20.04832458	     -2.68036734	      0.00000000	     10.51858233	     -5.00995774	      7.16979174	    -56.01974129	     19.98087052	      2.51687986	      0.00000000	    -26.13485343	      7.78710582	     -6.27759168
      5.98500000	     13.11998270	     -4.86095779	     12.60780866	      2.32280775	      0.94288638	     -0.20823776	    -17.15021844	     11.62531813	     -3.79018970	     -3.63863109	     20.10226468	     -2.41726475	      0.00000000	     10.87548352	     -4.79523866	      6.81166989	    -54.55851562	     20.24146652	      2.87478796	      0.00000000	    -26.29069089	      7.54077103	     -5.74909428
      5.99000000	     13.16777260	     -4.77031590	     12.24294041	      2.32867801	      0.94307747	     -0.20799922	    -17.73940318	     11.50776638	     -3.65675147	     -3.43897002	     20.12712735	     -2.18503275	      0.00000000	     11.15490535	     -4.60185977	      6.46279804	    -53.00701755	     20.42964829	      3.22875469	      0.00000000	    -26.49576873	      7.30508018	     -5.20285678
      5.99500000	     13.18100649	     -4.71392999	     11.89057497	      2.33454015	      0.94315509	     -0.20782791	    -18.26798170	     11.40934710	     -3.53845066	     -3.27351189	     20.18475274	     -1.91557742	      0.00000000	     11.44716984	     -4.43641383	      6.14872745	    -51.38074685	     20.63299966	      3.56902662	      0.00000000	    -26.65362003	      7.11102147	     -4.68603970
      6.00000000	     13.17278752	     -4.68644467	     11.54754892	      2.34043499	      0.94313395	     -0.20768434	    -18.75998857	     11.33170842	     -3.41805304	     -3.12883142	     20.27562278	     -1.64538044	      0.00000000	     11.73219410	     -4.30446384	      5.85731254	    -49.68024465	     20.83855646	      3.90395353	      0.00000000	    -26.77306730	      6.95166977	     -4.20191238
      6.00500000	     13.22573891	     -4.64663287	     11.16766388	      2.34628518	      0.94318300	     -0.20752026	    -19.30523251	     11.23212569	     -3.24571158	     -3.01698777	     20.31201728	     -1.40895248	      0.00000000	     11.89677468	     -4.18871352	      5.53782647	    -47.87460464	     20.96234208	      4.21532965	      0.00000000	    -26.98433318	      6.77117094	     -3.64580373
      6.01000000	     13.29137925	     -4.62286591	     10.80721416	      2.35217949	      0.94317555	     -0.20739681	    -19.86299539	     11.14933950	     -3.06925233	     -2.90239009	     20.36602917	     -1.18749045	      0.00000000	     12.01165315	     -4.09714032	      5.25183970	    -45.99588002	     21.05389466	      4.51475455	      0.00000000	    -27.19320049	      6.61574847	     -3.11890183
      6.01500000	     13.41549847	     -4.58625922	     10.46675783	      2.35812711	      0.94317788	     -0.20728789	    -20.48977055	     11.06562839	     -2.86201837	     -2.78337301	     20.40354854	     -1.03908714	      0.00000000	     12.01388220	     -4.01376770	      4.98426035	    -44.03252794	     21.11014711	      4.81760103	      0.00000000	    -27.45935956	      6.46401208	     -2.62412273
